<svg width="24" height="24" viewBox="0 0 24 24" fill="none" xmlns="http://www.w3.org/2000/svg">
<path d="M12 0C18.6242 0 24 5.20781 24 11.625C24 18.0422 18.6242 23.25 12 23.25C5.37581 23.25 7.15256e-07 18.0422 7.15256e-07 11.625C7.15256e-07 5.20781 5.37581 0 12 0ZM6.45484 10.6125L11.9226 17.7703L17.3758 10.6125C17.7968 10.0547 18.3 8.25 16.7177 7.2375C15.3581 6.38906 14.0758 7.04063 13.4032 7.79531C12.6339 8.63438 11.1484 8.5875 10.4177 7.79531C9.74516 7.04063 8.4629 6.38906 7.12258 7.2375C5.53065 8.25 6.02903 10.05 6.45484 10.6125Z" fill="#FF6161"/>
</svg>
